<svg xmlns="http://www.w3.org/2000/svg" width="1200" height="286" viewBox="0 0 1200 286">
<defs>
  <linearGradient id="bg" x1="0" x2="1">
    <stop offset="0" stop-color="#0c1423"/>
    <stop offset="1" stop-color="#0f1b2e"/>
  </linearGradient>
</defs>
<rect width="1200" height="286" rx="28" fill="url(#bg)"/>
<rect x="48" y="38" width="124" height="28" rx="14" fill="#113a2b" stroke="#246143"/>
<circle cx="65" cy="52" r="5" fill="#22c55e"/>
<text x="78" y="57" fill="#bbf7d0" font-size="12" font-family="Segoe UI,Arial">AVAILABLE NOW</text>

<text x="48" y="116" fill="#f8fafc" font-size="30" font-weight="700" font-family="Segoe UI,Arial">Have a backend, API or automation problem?</text>
<text x="48" y="149" fill="#aebbc9" font-size="16" font-family="Segoe UI,Arial">Send me the rough task and the result you need. I’ll tell you quickly if it’s a fit.</text>

<g font-family="Segoe UI,Arial">
  <rect x="48" y="188" width="178" height="44" rx="13" fill="#111c2d" stroke="#2b3b53"/>
  <text x="137" y="215" text-anchor="middle" fill="#cbd5e1" font-size="13" font-weight="700">rough task</text>
  <text x="240" y="216" fill="#587394" font-size="22">→</text>
  <rect x="273" y="188" width="178" height="44" rx="13" fill="#111c2d" stroke="#2b3b53"/>
  <text x="362" y="215" text-anchor="middle" fill="#cbd5e1" font-size="13" font-weight="700">quick fit check</text>
  <text x="465" y="216" fill="#587394" font-size="22">→</text>
  <rect x="498" y="188" width="194" height="44" rx="13" fill="#123628" stroke="#24553f"/>
  <text x="595" y="215" text-anchor="middle" fill="#86efac" font-size="13" font-weight="700">small paid milestone</text>
</g>

<rect x="792" y="68" width="336" height="158" rx="18" fill="#0b111d" stroke="#26364d"/>
<text x="820" y="106" fill="#e2e8f0" font-size="16" font-weight="700" font-family="Segoe UI,Arial">Serhii Drozdov</text>
<text x="820" y="134" fill="#94a3b8" font-size="13" font-family="Segoe UI,Arial">Python Backend · Automation · AI Integrations</text>
<text x="820" y="159" fill="#94a3b8" font-size="13" font-family="Segoe UI,Arial">Ukraine · Remote · European-hours friendly</text>
<rect x="820" y="183" width="278" height="2" fill="#38bdf8" opacity=".65"/>
<text x="820" y="211" fill="#7f8ea3" font-size="12" font-family="Segoe UI,Arial">Freelance · contract · subcontracting · agency overflow</text>
</svg>
